<svg width="479" height="479" viewBox="0 0 479 479" fill="none" xmlns="http://www.w3.org/2000/svg">
<path d="M70.7573 408.003L408.373 407.939C412.807 403.496 417.066 398.88 421.14 394.101L57.9817 394.165C62.0586 398.944 66.3208 403.561 70.7573 408.003Z" fill="#181818"/>
<path d="M47.0314 380.328L432.082 380.263C435.376 375.768 438.516 371.153 441.494 366.426L37.6133 366.49C40.5939 371.217 43.7358 375.832 47.0314 380.328Z" fill="#181818"/>
<path d="M29.5252 352.653L449.576 352.588C452.02 348.062 456.475 338.75 456.475 338.75L22.6216 338.815C24.7768 343.512 27.08 348.126 29.5252 352.653Z" fill="#181818"/>
<path d="M16.7948 324.978L462.297 324.913C464.043 320.366 465.653 315.751 467.124 311.075L11.9636 311.14C13.4355 315.816 15.0475 320.43 16.7948 324.978Z" fill="#181818"/>
<path d="M8.06589 297.302L471.017 297.238C472.152 292.676 473.156 288.062 474.025 283.4L5.05408 283.465C5.92384 288.126 6.9292 292.74 8.06589 297.302Z" fill="#181818"/>
<path d="M2.89174 269.627L476.183 269.562C476.759 264.989 477.206 260.375 477.52 255.725L1.55141 255.79C1.86617 260.44 2.31421 265.054 2.89174 269.627Z" fill="#181818"/>
<path d="M1.01293 241.952L478.054 241.887C478.063 241.073 478.067 240.258 478.067 239.442C478.067 235.623 477.977 231.825 477.799 228.05L1.26422 228.114C1.08873 231.868 1 235.645 1 239.442C1 240.279 1.00432 241.116 1.01293 241.952Z" fill="#181818"/>
<path d="M2.31166 214.277L476.748 214.212C476.259 209.558 475.636 204.944 474.883 200.374L4.17303 200.439C3.42138 205.009 2.79961 209.623 2.31166 214.277Z" fill="#181818"/>
<path d="M6.87297 186.601L472.179 186.537C471.123 181.871 469.929 177.257 468.604 172.699L10.4445 172.763C9.12016 177.321 7.92818 181.935 6.87297 186.601Z" fill="#181818"/>
<path d="M14.9307 158.926L464.113 158.862C462.433 154.18 460.61 149.565 458.651 145.024L20.3882 145.088C18.4303 149.629 16.6094 154.244 14.9307 158.926Z" fill="#181818"/>
<path d="M26.8904 131.25L452.144 131.187C449.744 126.482 447.192 121.867 444.495 117.349L34.5343 117.413C31.8391 121.931 29.289 126.545 26.8904 131.25Z" fill="#181818"/>
<path d="M43.4503 103.575L435.573 103.512C432.279 98.7714 428.819 94.1561 425.199 89.6745L53.817 89.737C50.1997 94.2189 46.7412 98.8344 43.4503 103.575Z" fill="#181818"/>
<path d="M65.8894 75.899L413.119 75.8372C408.589 71.0324 403.861 66.4157 398.95 62L80.0495 62.0607C75.1409 66.4769 70.4165 71.094 65.8894 75.899Z" fill="#181818"/>
<circle cx="239.5" cy="239.5" r="238.917" stroke="#181818" stroke-width="1.16667"/>
</svg>
